G04 #@! TF.GenerationSoftware,KiCad,Pcbnew,8.0.8*
G04 #@! TF.CreationDate,2025-01-15T15:59:59-05:00*
G04 #@! TF.ProjectId,mainboard,6d61696e-626f-4617-9264-2e6b69636164,rev?*
G04 #@! TF.SameCoordinates,Original*
G04 #@! TF.FileFunction,Soldermask,Bot*
G04 #@! TF.FilePolarity,Negative*
%FSLAX46Y46*%
G04 Gerber Fmt 4.6, Leading zero omitted, Abs format (unit mm)*
G04 Created by KiCad (PCBNEW 8.0.8) date 2025-01-15 15:59:59*
%MOMM*%
%LPD*%
G01*
G04 APERTURE LIST*
G04 Aperture macros list*
%AMRoundRect*
0 Rectangle with rounded corners*
0 $1 Rounding radius*
0 $2 $3 $4 $5 $6 $7 $8 $9 X,Y pos of 4 corners*
0 Add a 4 corners polygon primitive as box body*
4,1,4,$2,$3,$4,$5,$6,$7,$8,$9,$2,$3,0*
0 Add four circle primitives for the rounded corners*
1,1,$1+$1,$2,$3*
1,1,$1+$1,$4,$5*
1,1,$1+$1,$6,$7*
1,1,$1+$1,$8,$9*
0 Add four rect primitives between the rounded corners*
20,1,$1+$1,$2,$3,$4,$5,0*
20,1,$1+$1,$4,$5,$6,$7,0*
20,1,$1+$1,$6,$7,$8,$9,0*
20,1,$1+$1,$8,$9,$2,$3,0*%
%AMFreePoly0*
4,1,51,0.612105,0.832986,0.644504,0.832986,0.660992,0.829223,0.741186,0.790603,0.754407,0.780059,0.809903,0.710470,0.817241,0.695233,0.837047,0.608456,0.838000,0.600000,0.838000,-0.600000,0.837047,-0.608456,0.817241,-0.695233,0.809903,-0.710470,0.754407,-0.780059,0.741186,-0.790603,0.660992,-0.829223,0.644504,-0.832986,0.612105,-0.832986,0.600000,-0.838000,0.000000,-0.838000,
-0.004255,-0.837761,-0.182272,-0.817703,-0.190568,-0.815810,-0.359658,-0.756643,-0.367324,-0.752951,-0.519009,-0.657641,-0.525662,-0.652335,-0.652335,-0.525662,-0.657641,-0.519009,-0.752951,-0.367324,-0.756643,-0.359658,-0.815810,-0.190568,-0.817703,-0.182272,-0.837761,-0.004255,-0.837761,0.004255,-0.817703,0.182272,-0.815810,0.190568,-0.756643,0.359658,-0.752951,0.367324,-0.657641,0.519009,
-0.652335,0.525662,-0.525662,0.652335,-0.519009,0.657641,-0.367324,0.752951,-0.359658,0.756643,-0.190568,0.815810,-0.182272,0.817703,-0.004255,0.837761,0.000000,0.838000,0.600000,0.838000,0.612105,0.832986,0.612105,0.832986,$1*%
%AMFreePoly1*
4,1,51,0.004255,0.837761,0.182272,0.817703,0.190568,0.815810,0.359658,0.756643,0.367324,0.752951,0.519009,0.657641,0.525662,0.652335,0.652335,0.525662,0.657641,0.519009,0.752951,0.367324,0.756643,0.359658,0.815810,0.190568,0.817703,0.182272,0.837761,0.004255,0.837761,-0.004255,0.817703,-0.182272,0.815810,-0.190568,0.756643,-0.359658,0.752951,-0.367324,0.657641,-0.519009,
0.652335,-0.525662,0.525662,-0.652335,0.519009,-0.657641,0.367324,-0.752951,0.359658,-0.756643,0.190568,-0.815810,0.182272,-0.817703,0.004255,-0.837761,0.000000,-0.838000,-0.600000,-0.838000,-0.612105,-0.832986,-0.644504,-0.832986,-0.660992,-0.829223,-0.741186,-0.790603,-0.754407,-0.780059,-0.809903,-0.710470,-0.817241,-0.695233,-0.837047,-0.608456,-0.838000,-0.600000,-0.838000,0.600000,
-0.837047,0.608456,-0.817241,0.695233,-0.809903,0.710470,-0.754407,0.780059,-0.741186,0.790603,-0.660992,0.829223,-0.644504,0.832986,-0.612105,0.832986,-0.600000,0.838000,0.000000,0.838000,0.004255,0.837761,0.004255,0.837761,$1*%
G04 Aperture macros list end*
%ADD10C,3.076000*%
%ADD11C,1.676000*%
%ADD12RoundRect,0.209500X0.628500X-0.628500X0.628500X0.628500X-0.628500X0.628500X-0.628500X-0.628500X0*%
%ADD13FreePoly0,90.000000*%
%ADD14FreePoly1,90.000000*%
%ADD15O,1.676000X1.676000*%
%ADD16RoundRect,0.038000X0.850000X0.850000X-0.850000X0.850000X-0.850000X-0.850000X0.850000X-0.850000X0*%
%ADD17O,1.776000X1.776000*%
%ADD18RoundRect,0.038000X-0.900000X-0.900000X0.900000X-0.900000X0.900000X0.900000X-0.900000X0.900000X0*%
%ADD19C,1.876000*%
%ADD20RoundRect,0.038000X-0.850000X-0.850000X0.850000X-0.850000X0.850000X0.850000X-0.850000X0.850000X0*%
%ADD21C,1.776000*%
%ADD22RoundRect,0.038000X-1.000000X0.952500X-1.000000X-0.952500X1.000000X-0.952500X1.000000X0.952500X0*%
%ADD23O,2.076000X1.981000*%
%ADD24RoundRect,0.038000X-0.762000X-0.762000X0.762000X-0.762000X0.762000X0.762000X-0.762000X0.762000X0*%
%ADD25C,1.600000*%
%ADD26RoundRect,0.038000X0.850000X-0.850000X0.850000X0.850000X-0.850000X0.850000X-0.850000X-0.850000X0*%
%ADD27RoundRect,0.038000X0.600000X-0.600000X0.600000X0.600000X-0.600000X0.600000X-0.600000X-0.600000X0*%
%ADD28C,1.276000*%
G04 APERTURE END LIST*
D10*
G04 #@! TO.C,H4*
X189500000Y-123000000D03*
G04 #@! TD*
D11*
G04 #@! TO.C,C1*
X155000000Y-61000000D03*
X155000000Y-56000000D03*
G04 #@! TD*
D12*
G04 #@! TO.C,A2*
X137520000Y-83780000D03*
D11*
X140060000Y-83780000D03*
D13*
X142600000Y-83780000D03*
D11*
X145140000Y-83780000D03*
X147680000Y-83780000D03*
X150220000Y-83780000D03*
X152760000Y-83780000D03*
D13*
X155300000Y-83780000D03*
D11*
X157840000Y-83780000D03*
X160380000Y-83780000D03*
X162920000Y-83780000D03*
X165460000Y-83780000D03*
D13*
X168000000Y-83780000D03*
D11*
X170540000Y-83780000D03*
X173080000Y-83780000D03*
X175620000Y-83780000D03*
X178160000Y-83780000D03*
D13*
X180700000Y-83780000D03*
D11*
X183240000Y-83780000D03*
X185780000Y-83780000D03*
X185780000Y-66000000D03*
X183240000Y-66000000D03*
D14*
X180700000Y-66000000D03*
D11*
X178160000Y-66000000D03*
X175620000Y-66000000D03*
X173080000Y-66000000D03*
X170540000Y-66000000D03*
D14*
X168000000Y-66000000D03*
D11*
X165460000Y-66000000D03*
X162920000Y-66000000D03*
X160380000Y-66000000D03*
X157840000Y-66000000D03*
D14*
X155300000Y-66000000D03*
D11*
X152760000Y-66000000D03*
X150220000Y-66000000D03*
X147680000Y-66000000D03*
X145140000Y-66000000D03*
D14*
X142600000Y-66000000D03*
D11*
X140060000Y-66000000D03*
X137520000Y-66000000D03*
G04 #@! TD*
G04 #@! TO.C,R6*
X180950000Y-61310000D03*
D15*
X180950000Y-53690000D03*
G04 #@! TD*
D16*
G04 #@! TO.C,SW1*
X141500000Y-60580000D03*
D17*
X141500000Y-58040000D03*
X141500000Y-55500000D03*
G04 #@! TD*
D18*
G04 #@! TO.C,D4*
X162460000Y-123000000D03*
D19*
X165000000Y-123000000D03*
G04 #@! TD*
D11*
G04 #@! TO.C,R4*
X172850000Y-61310000D03*
D15*
X172850000Y-53690000D03*
G04 #@! TD*
D10*
G04 #@! TO.C,H2*
X189500000Y-50500000D03*
G04 #@! TD*
D20*
G04 #@! TO.C,J4*
X190500000Y-90200000D03*
D17*
X190500000Y-92740000D03*
X190500000Y-95280000D03*
X190500000Y-97820000D03*
G04 #@! TD*
D20*
G04 #@! TO.C,U1*
X154720000Y-93000000D03*
D21*
X157260000Y-93000000D03*
X159800000Y-93000000D03*
X162340000Y-93000000D03*
X164880000Y-93000000D03*
X167420000Y-93000000D03*
X169960000Y-93000000D03*
X172500000Y-93000000D03*
G04 #@! TD*
D22*
G04 #@! TO.C,U2*
X147500000Y-55000000D03*
D23*
X147500000Y-57540000D03*
X147500000Y-60080000D03*
G04 #@! TD*
D16*
G04 #@! TO.C,J9*
X136375000Y-116275000D03*
D17*
X136375000Y-113735000D03*
G04 #@! TD*
D11*
G04 #@! TO.C,R1*
X160700000Y-61310000D03*
D15*
X160700000Y-53690000D03*
G04 #@! TD*
D20*
G04 #@! TO.C,J11*
X190500000Y-57960000D03*
D17*
X190500000Y-60500000D03*
X190500000Y-63040000D03*
X190500000Y-65580000D03*
X190500000Y-68120000D03*
X190500000Y-70660000D03*
X190500000Y-73200000D03*
G04 #@! TD*
D20*
G04 #@! TO.C,J10*
X190500000Y-113725000D03*
D17*
X190500000Y-116265000D03*
G04 #@! TD*
D10*
G04 #@! TO.C,H1*
X137500000Y-50500000D03*
G04 #@! TD*
D16*
G04 #@! TO.C,BT1*
X135875000Y-59275000D03*
D17*
X135875000Y-56735000D03*
G04 #@! TD*
D11*
G04 #@! TO.C,R3*
X168800000Y-61310000D03*
D15*
X168800000Y-53690000D03*
G04 #@! TD*
D11*
G04 #@! TO.C,R2*
X164750000Y-61310000D03*
D15*
X164750000Y-53690000D03*
G04 #@! TD*
D24*
G04 #@! TO.C,J1*
X168850000Y-130350000D03*
D25*
X171350000Y-130350000D03*
X173850000Y-130350000D03*
X176350000Y-130350000D03*
X178850000Y-130350000D03*
X181350000Y-130350000D03*
X183850000Y-130350000D03*
X186350000Y-130350000D03*
G04 #@! TD*
D26*
G04 #@! TO.C,J6*
X155960000Y-50000000D03*
D17*
X158500000Y-50000000D03*
X161040000Y-50000000D03*
X163580000Y-50000000D03*
X166120000Y-50000000D03*
X168660000Y-50000000D03*
X171200000Y-50000000D03*
G04 #@! TD*
D16*
G04 #@! TO.C,J7*
X136500000Y-108000000D03*
D17*
X136500000Y-105460000D03*
X136500000Y-102920000D03*
G04 #@! TD*
D27*
G04 #@! TO.C,C2*
X144000000Y-50472600D03*
D28*
X144000000Y-48472600D03*
G04 #@! TD*
D16*
G04 #@! TO.C,J3*
X136500000Y-97500000D03*
D17*
X136500000Y-94960000D03*
X136500000Y-92420000D03*
X136500000Y-89880000D03*
G04 #@! TD*
D10*
G04 #@! TO.C,H3*
X142000000Y-121500000D03*
G04 #@! TD*
D11*
G04 #@! TO.C,R7*
X184500000Y-126500000D03*
D15*
X184500000Y-118880000D03*
G04 #@! TD*
D24*
G04 #@! TO.C,J2*
X142850000Y-130350000D03*
D25*
X145350000Y-130350000D03*
X147850000Y-130350000D03*
X150350000Y-130350000D03*
X152850000Y-130350000D03*
X155350000Y-130350000D03*
X157850000Y-130350000D03*
X160350000Y-130350000D03*
G04 #@! TD*
D11*
G04 #@! TO.C,R5*
X176900000Y-61310000D03*
D15*
X176900000Y-53690000D03*
G04 #@! TD*
D20*
G04 #@! TO.C,J8*
X190500000Y-102975000D03*
D17*
X190500000Y-105515000D03*
X190500000Y-108055000D03*
G04 #@! TD*
M02*
