M48
; DRILL file {KiCad 8.0.8} date 2025-01-15T21:47:28-0500
; FORMAT={-:-/ absolute / metric / decimal}
; #@! TF.CreationDate,2025-01-15T21:47:28-05:00
; #@! TF.GenerationSoftware,Kicad,Pcbnew,8.0.8
; #@! TF.FileFunction,Plated,1,2,PTH
FMAT,2
METRIC
; #@! TA.AperFunction,Plated,PTH,ViaDrill
T1C0.300
; #@! TA.AperFunction,Plated,PTH,ComponentDrill
T2C0.762
; #@! TA.AperFunction,Plated,PTH,ComponentDrill
T3C0.800
; #@! TA.AperFunction,Plated,PTH,ComponentDrill
T4C0.900
; #@! TA.AperFunction,Plated,PTH,ComponentDrill
T5C1.000
; #@! TA.AperFunction,Plated,PTH,ComponentDrill
T6C1.100
%
G90
G05
T1
X139.0Y-93.5
X139.5Y-101.0
X139.5Y-103.5
X140.0Y-115.0
X140.5Y-100.5
X140.5Y-103.0
X141.0Y-77.5
X141.0Y-114.0
X142.5Y-135.5
X143.5Y-70.5
X145.0Y-110.5
X145.5Y-74.5
X145.5Y-117.0
X146.5Y-80.0
X147.0Y-106.0
X147.5Y-71.5
X148.0Y-87.5
X149.0Y-100.0
X151.5Y-91.0
X151.5Y-98.5
X151.5Y-139.5
X153.0Y-116.0
X153.5Y-100.0
X154.5Y-75.0
X155.5Y-90.0
X156.0Y-63.5
X156.0Y-100.0
X157.0Y-123.5
X157.26Y-88.74
X157.5Y-99.0
X158.0Y-69.5
X159.5Y-87.4
X160.0Y-102.5
X160.5Y-77.5
X160.5Y-90.9
X161.0Y-98.4
X162.5Y-56.0
X162.5Y-98.5
X164.5Y-138.5
X165.0Y-75.0
X165.0Y-99.1
X167.0Y-68.0
X167.0Y-76.5
X167.5Y-100.0
X168.0Y-81.5
X168.0Y-101.0
X168.5Y-72.0
X170.0Y-75.5
X170.0Y-98.5
X170.5Y-88.0
X171.5Y-114.5
X173.0Y-75.5
X173.0Y-139.5
X174.0Y-110.0
X174.5Y-88.0
X175.5Y-75.5
X175.5Y-80.5
X175.5Y-101.0
X179.0Y-94.5
X180.5Y-88.0
X181.0Y-114.0
X183.0Y-78.0
X183.0Y-106.0
X184.5Y-117.0
X185.0Y-61.0
X185.0Y-139.0
X187.5Y-116.0
X188.0Y-69.5
X189.0Y-128.0
T2
X142.85Y-130.35
X145.35Y-130.35
X147.85Y-130.35
X150.35Y-130.35
X152.85Y-130.35
X155.35Y-130.35
X157.85Y-130.35
X160.35Y-130.35
X168.85Y-130.35
X171.35Y-130.35
X173.85Y-130.35
X176.35Y-130.35
X178.85Y-130.35
X181.35Y-130.35
X183.85Y-130.35
X186.35Y-130.35
T3
X153.0Y-59.0
X153.0Y-61.0
X157.5Y-54.5
X157.5Y-59.5
X160.7Y-53.69
X160.7Y-61.31
X164.75Y-53.69
X164.75Y-61.31
X168.8Y-53.69
X168.8Y-61.31
X172.85Y-53.69
X172.85Y-61.31
X176.9Y-53.69
X176.9Y-61.31
X180.95Y-53.69
X180.95Y-61.31
X184.5Y-118.88
X184.5Y-126.5
T4
X162.46Y-123.0
X165.0Y-123.0
T5
X136.375Y-113.735
X136.375Y-116.275
X136.5Y-56.735
X136.5Y-59.275
X136.5Y-89.88
X136.5Y-92.42
X136.5Y-94.96
X136.5Y-97.5
X136.5Y-102.92
X136.5Y-105.46
X136.5Y-108.0
X137.52Y-66.0
X137.52Y-83.78
X140.06Y-66.0
X140.06Y-83.78
X142.6Y-66.0
X142.6Y-83.78
X144.92Y-49.5
X145.14Y-66.0
X145.14Y-83.78
X147.46Y-49.5
X147.68Y-66.0
X147.68Y-83.78
X150.0Y-49.5
X150.22Y-66.0
X150.22Y-83.78
X152.76Y-66.0
X152.76Y-83.78
X154.72Y-93.0
X155.3Y-66.0
X155.3Y-83.78
X155.96Y-50.0
X157.26Y-93.0
X157.84Y-66.0
X157.84Y-83.78
X158.5Y-50.0
X159.8Y-93.0
X160.38Y-66.0
X160.38Y-83.78
X161.04Y-50.0
X162.34Y-93.0
X162.92Y-66.0
X162.92Y-83.78
X163.58Y-50.0
X164.88Y-93.0
X165.46Y-66.0
X165.46Y-83.78
X166.12Y-50.0
X167.42Y-93.0
X168.0Y-66.0
X168.0Y-83.78
X168.66Y-50.0
X169.96Y-93.0
X170.54Y-66.0
X170.54Y-83.78
X171.2Y-50.0
X172.5Y-93.0
X173.08Y-66.0
X173.08Y-83.78
X175.62Y-66.0
X175.62Y-83.78
X178.16Y-66.0
X178.16Y-83.78
X180.7Y-66.0
X180.7Y-83.78
X183.24Y-66.0
X183.24Y-83.78
X185.78Y-66.0
X185.78Y-83.78
X190.5Y-57.96
X190.5Y-60.5
X190.5Y-63.04
X190.5Y-65.58
X190.5Y-68.12
X190.5Y-70.66
X190.5Y-73.2
X190.5Y-90.2
X190.5Y-92.74
X190.5Y-95.28
X190.5Y-97.82
X190.5Y-102.975
X190.5Y-105.515
X190.5Y-108.055
X190.5Y-113.725
X190.5Y-116.265
T6
X141.96Y-60.0
X142.42Y-54.5
X144.5Y-60.0
X147.04Y-60.0
X152.58Y-54.5
M30
