%TF.GenerationSoftware,KiCad,Pcbnew,8.0.8*%
%TF.CreationDate,2025-01-15T21:47:28-05:00*%
%TF.ProjectId,mainboard,6d61696e-626f-4617-9264-2e6b69636164,rev?*%
%TF.SameCoordinates,Original*%
%TF.FileFunction,Drillmap*%
%TF.FilePolarity,Positive*%
%FSLAX45Y45*%
G04 Gerber Fmt 4.5, Leading zero omitted, Abs format (unit mm)*
G04 Created by KiCad (PCBNEW 8.0.8) date 2025-01-15 21:47:28*
%MOMM*%
%LPD*%
G01*
G04 APERTURE LIST*
%ADD10C,0.050000*%
%ADD11C,0.200000*%
%ADD12C,0.300000*%
G04 APERTURE END LIST*
D10*
X13400000Y-4950000D02*
G75*
G02*
X13650000Y-4700000I250000J0D01*
G01*
X13650000Y-4700000D02*
X19050000Y-4700000D01*
X13650000Y-14700000D02*
G75*
G02*
X13400000Y-14450000I0J250000D01*
G01*
X19300000Y-4950000D02*
X19300000Y-14450000D01*
X13400000Y-4950000D02*
X13400000Y-14450000D01*
X13650000Y-14700000D02*
X19050000Y-14700000D01*
X19300000Y-14450000D02*
G75*
G02*
X19050000Y-14700000I-250000J0D01*
G01*
X19050000Y-4700000D02*
G75*
G02*
X19300000Y-4950000I0J-250000D01*
G01*
D11*
D12*
X13600000Y-4900000D02*
X13900000Y-5200000D01*
X13900000Y-4900000D02*
X13600000Y-5200000D01*
X14050000Y-12000000D02*
X14350000Y-12300000D01*
X14350000Y-12000000D02*
X14050000Y-12300000D01*
X18800000Y-4900000D02*
X19100000Y-5200000D01*
X19100000Y-4900000D02*
X18800000Y-5200000D01*
X18800000Y-12150000D02*
X19100000Y-12450000D01*
X19100000Y-12150000D02*
X18800000Y-12450000D01*
D11*
X13658277Y-15013984D02*
X13658277Y-14813984D01*
X13658277Y-14813984D02*
X13705896Y-14813984D01*
X13705896Y-14813984D02*
X13734467Y-14823508D01*
X13734467Y-14823508D02*
X13753515Y-14842555D01*
X13753515Y-14842555D02*
X13763039Y-14861603D01*
X13763039Y-14861603D02*
X13772562Y-14899698D01*
X13772562Y-14899698D02*
X13772562Y-14928269D01*
X13772562Y-14928269D02*
X13763039Y-14966365D01*
X13763039Y-14966365D02*
X13753515Y-14985412D01*
X13753515Y-14985412D02*
X13734467Y-15004460D01*
X13734467Y-15004460D02*
X13705896Y-15013984D01*
X13705896Y-15013984D02*
X13658277Y-15013984D01*
X13858277Y-15013984D02*
X13858277Y-14880650D01*
X13858277Y-14918746D02*
X13867801Y-14899698D01*
X13867801Y-14899698D02*
X13877324Y-14890174D01*
X13877324Y-14890174D02*
X13896372Y-14880650D01*
X13896372Y-14880650D02*
X13915420Y-14880650D01*
X13982086Y-15013984D02*
X13982086Y-14880650D01*
X13982086Y-14813984D02*
X13972562Y-14823508D01*
X13972562Y-14823508D02*
X13982086Y-14833031D01*
X13982086Y-14833031D02*
X13991610Y-14823508D01*
X13991610Y-14823508D02*
X13982086Y-14813984D01*
X13982086Y-14813984D02*
X13982086Y-14833031D01*
X14105896Y-15013984D02*
X14086848Y-15004460D01*
X14086848Y-15004460D02*
X14077324Y-14985412D01*
X14077324Y-14985412D02*
X14077324Y-14813984D01*
X14210658Y-15013984D02*
X14191610Y-15004460D01*
X14191610Y-15004460D02*
X14182086Y-14985412D01*
X14182086Y-14985412D02*
X14182086Y-14813984D01*
X14439229Y-15013984D02*
X14439229Y-14813984D01*
X14439229Y-14813984D02*
X14505896Y-14956841D01*
X14505896Y-14956841D02*
X14572562Y-14813984D01*
X14572562Y-14813984D02*
X14572562Y-15013984D01*
X14753515Y-15013984D02*
X14753515Y-14909222D01*
X14753515Y-14909222D02*
X14743991Y-14890174D01*
X14743991Y-14890174D02*
X14724943Y-14880650D01*
X14724943Y-14880650D02*
X14686848Y-14880650D01*
X14686848Y-14880650D02*
X14667801Y-14890174D01*
X14753515Y-15004460D02*
X14734467Y-15013984D01*
X14734467Y-15013984D02*
X14686848Y-15013984D01*
X14686848Y-15013984D02*
X14667801Y-15004460D01*
X14667801Y-15004460D02*
X14658277Y-14985412D01*
X14658277Y-14985412D02*
X14658277Y-14966365D01*
X14658277Y-14966365D02*
X14667801Y-14947317D01*
X14667801Y-14947317D02*
X14686848Y-14937793D01*
X14686848Y-14937793D02*
X14734467Y-14937793D01*
X14734467Y-14937793D02*
X14753515Y-14928269D01*
X14848753Y-14880650D02*
X14848753Y-15080650D01*
X14848753Y-14890174D02*
X14867801Y-14880650D01*
X14867801Y-14880650D02*
X14905896Y-14880650D01*
X14905896Y-14880650D02*
X14924943Y-14890174D01*
X14924943Y-14890174D02*
X14934467Y-14899698D01*
X14934467Y-14899698D02*
X14943991Y-14918746D01*
X14943991Y-14918746D02*
X14943991Y-14975888D01*
X14943991Y-14975888D02*
X14934467Y-14994936D01*
X14934467Y-14994936D02*
X14924943Y-15004460D01*
X14924943Y-15004460D02*
X14905896Y-15013984D01*
X14905896Y-15013984D02*
X14867801Y-15013984D01*
X14867801Y-15013984D02*
X14848753Y-15004460D01*
X15029705Y-14994936D02*
X15039229Y-15004460D01*
X15039229Y-15004460D02*
X15029705Y-15013984D01*
X15029705Y-15013984D02*
X15020182Y-15004460D01*
X15020182Y-15004460D02*
X15029705Y-14994936D01*
X15029705Y-14994936D02*
X15029705Y-15013984D01*
X15029705Y-14890174D02*
X15039229Y-14899698D01*
X15039229Y-14899698D02*
X15029705Y-14909222D01*
X15029705Y-14909222D02*
X15020182Y-14899698D01*
X15020182Y-14899698D02*
X15029705Y-14890174D01*
X15029705Y-14890174D02*
X15029705Y-14909222D01*
X13197500Y-15242500D02*
X13397500Y-15442500D01*
X13397500Y-15242500D02*
X13197500Y-15442500D01*
X13639229Y-15233984D02*
X13763039Y-15233984D01*
X13763039Y-15233984D02*
X13696372Y-15310174D01*
X13696372Y-15310174D02*
X13724943Y-15310174D01*
X13724943Y-15310174D02*
X13743991Y-15319698D01*
X13743991Y-15319698D02*
X13753515Y-15329222D01*
X13753515Y-15329222D02*
X13763039Y-15348269D01*
X13763039Y-15348269D02*
X13763039Y-15395888D01*
X13763039Y-15395888D02*
X13753515Y-15414936D01*
X13753515Y-15414936D02*
X13743991Y-15424460D01*
X13743991Y-15424460D02*
X13724943Y-15433984D01*
X13724943Y-15433984D02*
X13667801Y-15433984D01*
X13667801Y-15433984D02*
X13648753Y-15424460D01*
X13648753Y-15424460D02*
X13639229Y-15414936D01*
X13848753Y-15414936D02*
X13858277Y-15424460D01*
X13858277Y-15424460D02*
X13848753Y-15433984D01*
X13848753Y-15433984D02*
X13839229Y-15424460D01*
X13839229Y-15424460D02*
X13848753Y-15414936D01*
X13848753Y-15414936D02*
X13848753Y-15433984D01*
X13982086Y-15233984D02*
X14001134Y-15233984D01*
X14001134Y-15233984D02*
X14020182Y-15243508D01*
X14020182Y-15243508D02*
X14029705Y-15253031D01*
X14029705Y-15253031D02*
X14039229Y-15272079D01*
X14039229Y-15272079D02*
X14048753Y-15310174D01*
X14048753Y-15310174D02*
X14048753Y-15357793D01*
X14048753Y-15357793D02*
X14039229Y-15395888D01*
X14039229Y-15395888D02*
X14029705Y-15414936D01*
X14029705Y-15414936D02*
X14020182Y-15424460D01*
X14020182Y-15424460D02*
X14001134Y-15433984D01*
X14001134Y-15433984D02*
X13982086Y-15433984D01*
X13982086Y-15433984D02*
X13963039Y-15424460D01*
X13963039Y-15424460D02*
X13953515Y-15414936D01*
X13953515Y-15414936D02*
X13943991Y-15395888D01*
X13943991Y-15395888D02*
X13934467Y-15357793D01*
X13934467Y-15357793D02*
X13934467Y-15310174D01*
X13934467Y-15310174D02*
X13943991Y-15272079D01*
X13943991Y-15272079D02*
X13953515Y-15253031D01*
X13953515Y-15253031D02*
X13963039Y-15243508D01*
X13963039Y-15243508D02*
X13982086Y-15233984D01*
X14172562Y-15233984D02*
X14191610Y-15233984D01*
X14191610Y-15233984D02*
X14210658Y-15243508D01*
X14210658Y-15243508D02*
X14220182Y-15253031D01*
X14220182Y-15253031D02*
X14229705Y-15272079D01*
X14229705Y-15272079D02*
X14239229Y-15310174D01*
X14239229Y-15310174D02*
X14239229Y-15357793D01*
X14239229Y-15357793D02*
X14229705Y-15395888D01*
X14229705Y-15395888D02*
X14220182Y-15414936D01*
X14220182Y-15414936D02*
X14210658Y-15424460D01*
X14210658Y-15424460D02*
X14191610Y-15433984D01*
X14191610Y-15433984D02*
X14172562Y-15433984D01*
X14172562Y-15433984D02*
X14153515Y-15424460D01*
X14153515Y-15424460D02*
X14143991Y-15414936D01*
X14143991Y-15414936D02*
X14134467Y-15395888D01*
X14134467Y-15395888D02*
X14124943Y-15357793D01*
X14124943Y-15357793D02*
X14124943Y-15310174D01*
X14124943Y-15310174D02*
X14134467Y-15272079D01*
X14134467Y-15272079D02*
X14143991Y-15253031D01*
X14143991Y-15253031D02*
X14153515Y-15243508D01*
X14153515Y-15243508D02*
X14172562Y-15233984D01*
X14363039Y-15233984D02*
X14382086Y-15233984D01*
X14382086Y-15233984D02*
X14401134Y-15243508D01*
X14401134Y-15243508D02*
X14410658Y-15253031D01*
X14410658Y-15253031D02*
X14420182Y-15272079D01*
X14420182Y-15272079D02*
X14429705Y-15310174D01*
X14429705Y-15310174D02*
X14429705Y-15357793D01*
X14429705Y-15357793D02*
X14420182Y-15395888D01*
X14420182Y-15395888D02*
X14410658Y-15414936D01*
X14410658Y-15414936D02*
X14401134Y-15424460D01*
X14401134Y-15424460D02*
X14382086Y-15433984D01*
X14382086Y-15433984D02*
X14363039Y-15433984D01*
X14363039Y-15433984D02*
X14343991Y-15424460D01*
X14343991Y-15424460D02*
X14334467Y-15414936D01*
X14334467Y-15414936D02*
X14324943Y-15395888D01*
X14324943Y-15395888D02*
X14315420Y-15357793D01*
X14315420Y-15357793D02*
X14315420Y-15310174D01*
X14315420Y-15310174D02*
X14324943Y-15272079D01*
X14324943Y-15272079D02*
X14334467Y-15253031D01*
X14334467Y-15253031D02*
X14343991Y-15243508D01*
X14343991Y-15243508D02*
X14363039Y-15233984D01*
X14515420Y-15433984D02*
X14515420Y-15300650D01*
X14515420Y-15319698D02*
X14524943Y-15310174D01*
X14524943Y-15310174D02*
X14543991Y-15300650D01*
X14543991Y-15300650D02*
X14572563Y-15300650D01*
X14572563Y-15300650D02*
X14591610Y-15310174D01*
X14591610Y-15310174D02*
X14601134Y-15329222D01*
X14601134Y-15329222D02*
X14601134Y-15433984D01*
X14601134Y-15329222D02*
X14610658Y-15310174D01*
X14610658Y-15310174D02*
X14629705Y-15300650D01*
X14629705Y-15300650D02*
X14658277Y-15300650D01*
X14658277Y-15300650D02*
X14677324Y-15310174D01*
X14677324Y-15310174D02*
X14686848Y-15329222D01*
X14686848Y-15329222D02*
X14686848Y-15433984D01*
X14782086Y-15433984D02*
X14782086Y-15300650D01*
X14782086Y-15319698D02*
X14791610Y-15310174D01*
X14791610Y-15310174D02*
X14810658Y-15300650D01*
X14810658Y-15300650D02*
X14839229Y-15300650D01*
X14839229Y-15300650D02*
X14858277Y-15310174D01*
X14858277Y-15310174D02*
X14867801Y-15329222D01*
X14867801Y-15329222D02*
X14867801Y-15433984D01*
X14867801Y-15329222D02*
X14877324Y-15310174D01*
X14877324Y-15310174D02*
X14896372Y-15300650D01*
X14896372Y-15300650D02*
X14924943Y-15300650D01*
X14924943Y-15300650D02*
X14943991Y-15310174D01*
X14943991Y-15310174D02*
X14953515Y-15329222D01*
X14953515Y-15329222D02*
X14953515Y-15433984D01*
X15343991Y-15224460D02*
X15172563Y-15481603D01*
X15601134Y-15233984D02*
X15620182Y-15233984D01*
X15620182Y-15233984D02*
X15639229Y-15243508D01*
X15639229Y-15243508D02*
X15648753Y-15253031D01*
X15648753Y-15253031D02*
X15658277Y-15272079D01*
X15658277Y-15272079D02*
X15667801Y-15310174D01*
X15667801Y-15310174D02*
X15667801Y-15357793D01*
X15667801Y-15357793D02*
X15658277Y-15395888D01*
X15658277Y-15395888D02*
X15648753Y-15414936D01*
X15648753Y-15414936D02*
X15639229Y-15424460D01*
X15639229Y-15424460D02*
X15620182Y-15433984D01*
X15620182Y-15433984D02*
X15601134Y-15433984D01*
X15601134Y-15433984D02*
X15582086Y-15424460D01*
X15582086Y-15424460D02*
X15572563Y-15414936D01*
X15572563Y-15414936D02*
X15563039Y-15395888D01*
X15563039Y-15395888D02*
X15553515Y-15357793D01*
X15553515Y-15357793D02*
X15553515Y-15310174D01*
X15553515Y-15310174D02*
X15563039Y-15272079D01*
X15563039Y-15272079D02*
X15572563Y-15253031D01*
X15572563Y-15253031D02*
X15582086Y-15243508D01*
X15582086Y-15243508D02*
X15601134Y-15233984D01*
X15753515Y-15414936D02*
X15763039Y-15424460D01*
X15763039Y-15424460D02*
X15753515Y-15433984D01*
X15753515Y-15433984D02*
X15743991Y-15424460D01*
X15743991Y-15424460D02*
X15753515Y-15414936D01*
X15753515Y-15414936D02*
X15753515Y-15433984D01*
X15953515Y-15433984D02*
X15839229Y-15433984D01*
X15896372Y-15433984D02*
X15896372Y-15233984D01*
X15896372Y-15233984D02*
X15877325Y-15262555D01*
X15877325Y-15262555D02*
X15858277Y-15281603D01*
X15858277Y-15281603D02*
X15839229Y-15291127D01*
X16143991Y-15433984D02*
X16029706Y-15433984D01*
X16086848Y-15433984D02*
X16086848Y-15233984D01*
X16086848Y-15233984D02*
X16067801Y-15262555D01*
X16067801Y-15262555D02*
X16048753Y-15281603D01*
X16048753Y-15281603D02*
X16029706Y-15291127D01*
X16258277Y-15319698D02*
X16239229Y-15310174D01*
X16239229Y-15310174D02*
X16229706Y-15300650D01*
X16229706Y-15300650D02*
X16220182Y-15281603D01*
X16220182Y-15281603D02*
X16220182Y-15272079D01*
X16220182Y-15272079D02*
X16229706Y-15253031D01*
X16229706Y-15253031D02*
X16239229Y-15243508D01*
X16239229Y-15243508D02*
X16258277Y-15233984D01*
X16258277Y-15233984D02*
X16296372Y-15233984D01*
X16296372Y-15233984D02*
X16315420Y-15243508D01*
X16315420Y-15243508D02*
X16324944Y-15253031D01*
X16324944Y-15253031D02*
X16334467Y-15272079D01*
X16334467Y-15272079D02*
X16334467Y-15281603D01*
X16334467Y-15281603D02*
X16324944Y-15300650D01*
X16324944Y-15300650D02*
X16315420Y-15310174D01*
X16315420Y-15310174D02*
X16296372Y-15319698D01*
X16296372Y-15319698D02*
X16258277Y-15319698D01*
X16258277Y-15319698D02*
X16239229Y-15329222D01*
X16239229Y-15329222D02*
X16229706Y-15338746D01*
X16229706Y-15338746D02*
X16220182Y-15357793D01*
X16220182Y-15357793D02*
X16220182Y-15395888D01*
X16220182Y-15395888D02*
X16229706Y-15414936D01*
X16229706Y-15414936D02*
X16239229Y-15424460D01*
X16239229Y-15424460D02*
X16258277Y-15433984D01*
X16258277Y-15433984D02*
X16296372Y-15433984D01*
X16296372Y-15433984D02*
X16315420Y-15424460D01*
X16315420Y-15424460D02*
X16324944Y-15414936D01*
X16324944Y-15414936D02*
X16334467Y-15395888D01*
X16334467Y-15395888D02*
X16334467Y-15357793D01*
X16334467Y-15357793D02*
X16324944Y-15338746D01*
X16324944Y-15338746D02*
X16315420Y-15329222D01*
X16315420Y-15329222D02*
X16296372Y-15319698D01*
X16524944Y-15433984D02*
X16410658Y-15433984D01*
X16467801Y-15433984D02*
X16467801Y-15233984D01*
X16467801Y-15233984D02*
X16448753Y-15262555D01*
X16448753Y-15262555D02*
X16429706Y-15281603D01*
X16429706Y-15281603D02*
X16410658Y-15291127D01*
X16601134Y-15233984D02*
X16601134Y-15272079D01*
X16677325Y-15233984D02*
X16677325Y-15272079D01*
X16972563Y-15510174D02*
X16963039Y-15500650D01*
X16963039Y-15500650D02*
X16943991Y-15472079D01*
X16943991Y-15472079D02*
X16934468Y-15453031D01*
X16934468Y-15453031D02*
X16924944Y-15424460D01*
X16924944Y-15424460D02*
X16915420Y-15376841D01*
X16915420Y-15376841D02*
X16915420Y-15338746D01*
X16915420Y-15338746D02*
X16924944Y-15291127D01*
X16924944Y-15291127D02*
X16934468Y-15262555D01*
X16934468Y-15262555D02*
X16943991Y-15243508D01*
X16943991Y-15243508D02*
X16963039Y-15214936D01*
X16963039Y-15214936D02*
X16972563Y-15205412D01*
X17134468Y-15300650D02*
X17134468Y-15433984D01*
X17086849Y-15224460D02*
X17039230Y-15367317D01*
X17039230Y-15367317D02*
X17163039Y-15367317D01*
X17391611Y-15433984D02*
X17391611Y-15233984D01*
X17477325Y-15433984D02*
X17477325Y-15329222D01*
X17477325Y-15329222D02*
X17467801Y-15310174D01*
X17467801Y-15310174D02*
X17448753Y-15300650D01*
X17448753Y-15300650D02*
X17420182Y-15300650D01*
X17420182Y-15300650D02*
X17401134Y-15310174D01*
X17401134Y-15310174D02*
X17391611Y-15319698D01*
X17601134Y-15433984D02*
X17582087Y-15424460D01*
X17582087Y-15424460D02*
X17572563Y-15414936D01*
X17572563Y-15414936D02*
X17563039Y-15395888D01*
X17563039Y-15395888D02*
X17563039Y-15338746D01*
X17563039Y-15338746D02*
X17572563Y-15319698D01*
X17572563Y-15319698D02*
X17582087Y-15310174D01*
X17582087Y-15310174D02*
X17601134Y-15300650D01*
X17601134Y-15300650D02*
X17629706Y-15300650D01*
X17629706Y-15300650D02*
X17648753Y-15310174D01*
X17648753Y-15310174D02*
X17658277Y-15319698D01*
X17658277Y-15319698D02*
X17667801Y-15338746D01*
X17667801Y-15338746D02*
X17667801Y-15395888D01*
X17667801Y-15395888D02*
X17658277Y-15414936D01*
X17658277Y-15414936D02*
X17648753Y-15424460D01*
X17648753Y-15424460D02*
X17629706Y-15433984D01*
X17629706Y-15433984D02*
X17601134Y-15433984D01*
X17782087Y-15433984D02*
X17763039Y-15424460D01*
X17763039Y-15424460D02*
X17753515Y-15405412D01*
X17753515Y-15405412D02*
X17753515Y-15233984D01*
X17934468Y-15424460D02*
X17915420Y-15433984D01*
X17915420Y-15433984D02*
X17877325Y-15433984D01*
X17877325Y-15433984D02*
X17858277Y-15424460D01*
X17858277Y-15424460D02*
X17848753Y-15405412D01*
X17848753Y-15405412D02*
X17848753Y-15329222D01*
X17848753Y-15329222D02*
X17858277Y-15310174D01*
X17858277Y-15310174D02*
X17877325Y-15300650D01*
X17877325Y-15300650D02*
X17915420Y-15300650D01*
X17915420Y-15300650D02*
X17934468Y-15310174D01*
X17934468Y-15310174D02*
X17943992Y-15329222D01*
X17943992Y-15329222D02*
X17943992Y-15348269D01*
X17943992Y-15348269D02*
X17848753Y-15367317D01*
X18020182Y-15424460D02*
X18039230Y-15433984D01*
X18039230Y-15433984D02*
X18077325Y-15433984D01*
X18077325Y-15433984D02*
X18096373Y-15424460D01*
X18096373Y-15424460D02*
X18105896Y-15405412D01*
X18105896Y-15405412D02*
X18105896Y-15395888D01*
X18105896Y-15395888D02*
X18096373Y-15376841D01*
X18096373Y-15376841D02*
X18077325Y-15367317D01*
X18077325Y-15367317D02*
X18048753Y-15367317D01*
X18048753Y-15367317D02*
X18029706Y-15357793D01*
X18029706Y-15357793D02*
X18020182Y-15338746D01*
X18020182Y-15338746D02*
X18020182Y-15329222D01*
X18020182Y-15329222D02*
X18029706Y-15310174D01*
X18029706Y-15310174D02*
X18048753Y-15300650D01*
X18048753Y-15300650D02*
X18077325Y-15300650D01*
X18077325Y-15300650D02*
X18096373Y-15310174D01*
X18172563Y-15510174D02*
X18182087Y-15500650D01*
X18182087Y-15500650D02*
X18201134Y-15472079D01*
X18201134Y-15472079D02*
X18210658Y-15453031D01*
X18210658Y-15453031D02*
X18220182Y-15424460D01*
X18220182Y-15424460D02*
X18229706Y-15376841D01*
X18229706Y-15376841D02*
X18229706Y-15338746D01*
X18229706Y-15338746D02*
X18220182Y-15291127D01*
X18220182Y-15291127D02*
X18210658Y-15262555D01*
X18210658Y-15262555D02*
X18201134Y-15243508D01*
X18201134Y-15243508D02*
X18182087Y-15214936D01*
X18182087Y-15214936D02*
X18172563Y-15205412D01*
X18534468Y-15510174D02*
X18524944Y-15500650D01*
X18524944Y-15500650D02*
X18505896Y-15472079D01*
X18505896Y-15472079D02*
X18496373Y-15453031D01*
X18496373Y-15453031D02*
X18486849Y-15424460D01*
X18486849Y-15424460D02*
X18477325Y-15376841D01*
X18477325Y-15376841D02*
X18477325Y-15338746D01*
X18477325Y-15338746D02*
X18486849Y-15291127D01*
X18486849Y-15291127D02*
X18496373Y-15262555D01*
X18496373Y-15262555D02*
X18505896Y-15243508D01*
X18505896Y-15243508D02*
X18524944Y-15214936D01*
X18524944Y-15214936D02*
X18534468Y-15205412D01*
X18610658Y-15300650D02*
X18610658Y-15433984D01*
X18610658Y-15319698D02*
X18620182Y-15310174D01*
X18620182Y-15310174D02*
X18639230Y-15300650D01*
X18639230Y-15300650D02*
X18667801Y-15300650D01*
X18667801Y-15300650D02*
X18686849Y-15310174D01*
X18686849Y-15310174D02*
X18696373Y-15329222D01*
X18696373Y-15329222D02*
X18696373Y-15433984D01*
X18820182Y-15433984D02*
X18801134Y-15424460D01*
X18801134Y-15424460D02*
X18791611Y-15414936D01*
X18791611Y-15414936D02*
X18782087Y-15395888D01*
X18782087Y-15395888D02*
X18782087Y-15338746D01*
X18782087Y-15338746D02*
X18791611Y-15319698D01*
X18791611Y-15319698D02*
X18801134Y-15310174D01*
X18801134Y-15310174D02*
X18820182Y-15300650D01*
X18820182Y-15300650D02*
X18848754Y-15300650D01*
X18848754Y-15300650D02*
X18867801Y-15310174D01*
X18867801Y-15310174D02*
X18877325Y-15319698D01*
X18877325Y-15319698D02*
X18886849Y-15338746D01*
X18886849Y-15338746D02*
X18886849Y-15395888D01*
X18886849Y-15395888D02*
X18877325Y-15414936D01*
X18877325Y-15414936D02*
X18867801Y-15424460D01*
X18867801Y-15424460D02*
X18848754Y-15433984D01*
X18848754Y-15433984D02*
X18820182Y-15433984D01*
X18943992Y-15300650D02*
X19020182Y-15300650D01*
X18972563Y-15233984D02*
X18972563Y-15405412D01*
X18972563Y-15405412D02*
X18982087Y-15424460D01*
X18982087Y-15424460D02*
X19001134Y-15433984D01*
X19001134Y-15433984D02*
X19020182Y-15433984D01*
X19239230Y-15300650D02*
X19239230Y-15500650D01*
X19239230Y-15310174D02*
X19258277Y-15300650D01*
X19258277Y-15300650D02*
X19296373Y-15300650D01*
X19296373Y-15300650D02*
X19315420Y-15310174D01*
X19315420Y-15310174D02*
X19324944Y-15319698D01*
X19324944Y-15319698D02*
X19334468Y-15338746D01*
X19334468Y-15338746D02*
X19334468Y-15395888D01*
X19334468Y-15395888D02*
X19324944Y-15414936D01*
X19324944Y-15414936D02*
X19315420Y-15424460D01*
X19315420Y-15424460D02*
X19296373Y-15433984D01*
X19296373Y-15433984D02*
X19258277Y-15433984D01*
X19258277Y-15433984D02*
X19239230Y-15424460D01*
X19448754Y-15433984D02*
X19429706Y-15424460D01*
X19429706Y-15424460D02*
X19420182Y-15405412D01*
X19420182Y-15405412D02*
X19420182Y-15233984D01*
X19610658Y-15433984D02*
X19610658Y-15329222D01*
X19610658Y-15329222D02*
X19601135Y-15310174D01*
X19601135Y-15310174D02*
X19582087Y-15300650D01*
X19582087Y-15300650D02*
X19543992Y-15300650D01*
X19543992Y-15300650D02*
X19524944Y-15310174D01*
X19610658Y-15424460D02*
X19591611Y-15433984D01*
X19591611Y-15433984D02*
X19543992Y-15433984D01*
X19543992Y-15433984D02*
X19524944Y-15424460D01*
X19524944Y-15424460D02*
X19515420Y-15405412D01*
X19515420Y-15405412D02*
X19515420Y-15386365D01*
X19515420Y-15386365D02*
X19524944Y-15367317D01*
X19524944Y-15367317D02*
X19543992Y-15357793D01*
X19543992Y-15357793D02*
X19591611Y-15357793D01*
X19591611Y-15357793D02*
X19610658Y-15348269D01*
X19677325Y-15300650D02*
X19753515Y-15300650D01*
X19705896Y-15233984D02*
X19705896Y-15405412D01*
X19705896Y-15405412D02*
X19715420Y-15424460D01*
X19715420Y-15424460D02*
X19734468Y-15433984D01*
X19734468Y-15433984D02*
X19753515Y-15433984D01*
X19896373Y-15424460D02*
X19877325Y-15433984D01*
X19877325Y-15433984D02*
X19839230Y-15433984D01*
X19839230Y-15433984D02*
X19820182Y-15424460D01*
X19820182Y-15424460D02*
X19810658Y-15405412D01*
X19810658Y-15405412D02*
X19810658Y-15329222D01*
X19810658Y-15329222D02*
X19820182Y-15310174D01*
X19820182Y-15310174D02*
X19839230Y-15300650D01*
X19839230Y-15300650D02*
X19877325Y-15300650D01*
X19877325Y-15300650D02*
X19896373Y-15310174D01*
X19896373Y-15310174D02*
X19905896Y-15329222D01*
X19905896Y-15329222D02*
X19905896Y-15348269D01*
X19905896Y-15348269D02*
X19810658Y-15367317D01*
X20077325Y-15433984D02*
X20077325Y-15233984D01*
X20077325Y-15424460D02*
X20058277Y-15433984D01*
X20058277Y-15433984D02*
X20020182Y-15433984D01*
X20020182Y-15433984D02*
X20001135Y-15424460D01*
X20001135Y-15424460D02*
X19991611Y-15414936D01*
X19991611Y-15414936D02*
X19982087Y-15395888D01*
X19982087Y-15395888D02*
X19982087Y-15338746D01*
X19982087Y-15338746D02*
X19991611Y-15319698D01*
X19991611Y-15319698D02*
X20001135Y-15310174D01*
X20001135Y-15310174D02*
X20020182Y-15300650D01*
X20020182Y-15300650D02*
X20058277Y-15300650D01*
X20058277Y-15300650D02*
X20077325Y-15310174D01*
X20153516Y-15510174D02*
X20163039Y-15500650D01*
X20163039Y-15500650D02*
X20182087Y-15472079D01*
X20182087Y-15472079D02*
X20191611Y-15453031D01*
X20191611Y-15453031D02*
X20201135Y-15424460D01*
X20201135Y-15424460D02*
X20210658Y-15376841D01*
X20210658Y-15376841D02*
X20210658Y-15338746D01*
X20210658Y-15338746D02*
X20201135Y-15291127D01*
X20201135Y-15291127D02*
X20191611Y-15262555D01*
X20191611Y-15262555D02*
X20182087Y-15243508D01*
X20182087Y-15243508D02*
X20163039Y-15214936D01*
X20163039Y-15214936D02*
X20153516Y-15205412D01*
M02*
